<svg xmlns="http://www.w3.org/2000/svg" width="124.998" height="150" viewBox="0 0 124.998 150">
  <path id="Combined_Shape" data-name="Combined Shape" d="M31.248,150a3.125,3.125,0,0,1,0-6.251h62.5a3.125,3.125,0,0,1,0,6.249Zm18.882-29.576a19.081,19.081,0,0,1-6.413-11.341H10.372a3.145,3.145,0,0,1-2.209-.914c-2.18-2.178-2.068-7.976-1.7-10.738.56-4.253,2.147-7.246,4.589-8.657,8.433-4.867,13.537-18.111,15.17-39.361a36.339,36.339,0,0,1,8.507-20.737,36.923,36.923,0,0,1,8.337-7.321,36.179,36.179,0,0,1,10.229-4.516,10.942,10.942,0,1,1,18.417,0,36.206,36.206,0,0,1,10.228,4.516,36.951,36.951,0,0,1,8.338,7.321A36.342,36.342,0,0,1,98.78,49.413c1.632,21.25,6.735,34.494,15.17,39.361a7.836,7.836,0,0,1,2.878,3.046c.048.077.092.156.136.242a16.087,16.087,0,0,1,1.575,5.365c.363,2.763.476,8.564-1.7,10.742a3.148,3.148,0,0,1-2.209.914H81.281a19.028,19.028,0,0,1-31.151,11.341ZM62.5,118.75a12.778,12.778,0,0,0,12.4-9.668H50.094A12.777,12.777,0,0,0,62.5,118.75ZM32.45,49.892c-1.826,23.761-7.805,38.251-18.278,44.3-.466.269-1.267,1.683-1.566,4.475a18.4,18.4,0,0,0,.02,4.17h99.747a18.484,18.484,0,0,0,.019-4.17,14.762,14.762,0,0,0-.366-2.078H74.686a3.125,3.125,0,0,1,0-6.25h31.161a30.829,30.829,0,0,1-4.745-6.249H86.359a3.125,3.125,0,1,1,0-6.25H98.107a73.284,73.284,0,0,1-3.515-12.4,132.339,132.339,0,0,1-2.045-15.546,30.123,30.123,0,0,0-60.1,0Zm25.358-38.95A4.691,4.691,0,1,0,62.5,6.249,4.7,4.7,0,0,0,57.808,10.942Zm3.753,85.642a3.125,3.125,0,0,1,0-6.25h1.875a3.125,3.125,0,0,1,0,6.25ZM119.875,85.5C109.134,76.572,106.59,67.4,105.213,51.42a3.125,3.125,0,0,1,6.228-.536c1.274,14.794,3.284,22.206,12.431,29.814a3.125,3.125,0,0,1-4,4.806ZM.777,85.164a3.127,3.127,0,0,1,.286-4.41q.578-.508,1.121-1a3.125,3.125,0,1,1,4.222,4.609q-.589.539-1.218,1.091a3.126,3.126,0,0,1-4.41-.286Zm7.915-7.405a3.123,3.123,0,0,1-.779-4.35c4.226-6.073,4.877-12.384,5.842-24.953a3.125,3.125,0,1,1,6.232.479c-1.025,13.343-1.8,20.651-6.945,28.045a3.123,3.123,0,0,1-4.35.78ZM104.2,43.31c-.112-.525-.236-1.054-.367-1.572a3.125,3.125,0,1,1,6.056-1.54c.152.6.294,1.2.423,1.81a3.125,3.125,0,1,1-6.112,1.3Z" transform="translate(0)" fill="#2334d0"/>
</svg>
