<svg xmlns="http://www.w3.org/2000/svg" width="130.125" height="130.125" viewBox="0 0 130.125 130.125">
  <path id="Combined_Shape" data-name="Combined Shape" d="M11.561,130.121l-2.485-9.072L0,118.562l9.076-2.486L11.562,107l2.487,9.076,9.076,2.486-9.076,2.487-2.486,9.072v0ZM10.7,117.7l-3.134.859,3.134.859.859,3.133.859-3.133,3.133-.859-3.133-.859-.859-3.134Zm77.168-12.453H31.754a6.729,6.729,0,0,1-4.916-2.143,6.846,6.846,0,0,1-1.823-5.094L29.687,30.3A6.8,6.8,0,0,1,36.441,24H83.214a6.8,6.8,0,0,1,6.753,6.3l.021.328a20.25,20.25,0,0,1,5.25,31.294h6.569a4.067,4.067,0,0,1,4.063,4.063V93.063a4.067,4.067,0,0,1-4.063,4.063H94.579l.061.88a6.85,6.85,0,0,1-1.824,5.1,6.729,6.729,0,0,1-4.915,2.143ZM32.39,30.486,27.72,98.194a4.078,4.078,0,0,0,4.063,4.349H87.874a4.077,4.077,0,0,0,4.063-4.354l-.074-1.063H58.473a4.067,4.067,0,0,1-4.063-4.063V65.98a4.067,4.067,0,0,1,4.063-4.063h6.569a20.267,20.267,0,0,1-4.809-9.5c-.061,0-.122,0-.182.008s-.149.009-.224.009A20.336,20.336,0,0,1,39.514,32.125h2.708a17.652,17.652,0,0,0,17.6,17.6H59.9c-.005-.088-.012-.175-.018-.263-.025-.355-.05-.724-.05-1.092A20.254,20.254,0,0,1,86.969,29.27a4.057,4.057,0,0,0-3.755-2.561H36.441A4.1,4.1,0,0,0,32.39,30.486ZM57.118,93.063a1.356,1.356,0,0,0,1.354,1.354h43.333a1.356,1.356,0,0,0,1.354-1.354v-14.9H57.118Zm0-17.6h46.042V72.751H57.118Zm0-9.479v4.062h46.042V65.98a1.356,1.356,0,0,0-1.354-1.354h-9.53a20.158,20.158,0,0,1-24.272,0H58.473A1.356,1.356,0,0,0,57.118,65.98Zm5.417-17.6a17.6,17.6,0,1,0,17.6-17.6A17.625,17.625,0,0,0,62.536,48.375ZM92.315,90.962a5.351,5.351,0,0,1-2.7.746,5.417,5.417,0,1,1,0-10.833,5.36,5.36,0,0,1,2.7.746,5.377,5.377,0,0,1,2.721-.746h.023a5.417,5.417,0,1,1-2.744,10.087Zm2.023-7.276a5.232,5.232,0,0,1,0,5.211,2.709,2.709,0,1,0,0-5.211ZM86.91,86.292a2.709,2.709,0,1,0,2.709-2.709A2.711,2.711,0,0,0,86.91,86.292ZM70.9,59.822,87.158,35.448l2.254,1.5L73.153,61.325Zm10.595-4.675a5.417,5.417,0,1,1,5.417,5.416A5.423,5.423,0,0,1,81.494,55.147Zm2.708,0a2.709,2.709,0,1,0,2.709-2.709A2.712,2.712,0,0,0,84.2,55.147Zm34.359-1.025-2.485-9.073L107,42.562l9.076-2.486L118.562,31l2.487,9.076,9.076,2.486-9.076,2.487-2.486,9.073v0ZM117.7,41.7l-3.134.859,3.134.859.859,3.133.859-3.133,3.133-.859-3.133-.859-.859-3.134Zm-49.752-.1a5.417,5.417,0,1,1,5.417,5.416A5.423,5.423,0,0,1,67.952,41.605Zm2.708,0A2.709,2.709,0,1,0,73.369,38.9,2.712,2.712,0,0,0,70.66,41.605ZM15.312,30.622,12.02,18.6,0,15.313,12.02,12.02,15.313,0,18.6,12.02l12.02,3.293L18.6,18.6,15.314,30.622v0Zm-.851-16.16-3.106.851,3.106.852.851,3.105.852-3.105,3.105-.852-3.105-.851-.852-3.106Z" fill="#2334d0"/>
</svg>
