<svg id="Stockholm_icons_Navigation_Arrow_left_Copy" data-name="Stockholm icons / Navigation / Arrow left Copy" xmlns="http://www.w3.org/2000/svg" width="24" height="24" viewBox="0 0 24 24">
  <g id="Group_45" data-name="Group 45" transform="translate(5 5)">
    <path id="Shape" d="M4.375,14H1a1,1,0,0,1-1-1V9.625A.775.775,0,0,1,.875,8.75a.775.775,0,0,1,.875.875V12.25H4.375c.581.1.875.394.875.875s-.294.776-.875.876Zm8.75-8.751a.775.775,0,0,1-.875-.875V1.75H9.625c-.581-.1-.875-.393-.875-.875S9.044.1,9.625,0H13a1,1,0,0,1,1,1V4.375A.776.776,0,0,1,13.125,5.25Z" fill="#4e4e4e"/>
    <path id="Shape-2" data-name="Shape" d="M13,14H9.625a.776.776,0,0,1-.875-.876.775.775,0,0,1,.875-.875H12.25V9.625c.1-.581.394-.875.875-.875s.776.294.876.875V13A1,1,0,0,1,13,14ZM.875,5.25C.394,5.25.1,4.955,0,4.375V1A1,1,0,0,1,1,0H4.375A.775.775,0,0,1,5.25.875a.775.775,0,0,1-.875.875H1.75V4.375C1.651,4.955,1.357,5.25.875,5.25Z" fill="#4e4e4e"/>
  </g>
</svg>
