<svg id="calendar" xmlns="http://www.w3.org/2000/svg" width="15" height="15" viewBox="0 0 15 15">
  <path id="Shape" d="M13.243,15H1.758A1.76,1.76,0,0,1,0,13.243V2.93A1.76,1.76,0,0,1,1.758,1.172h.7V0H3.632V1.172h7.735V0h1.172V1.172h.7A1.76,1.76,0,0,1,15,2.93V13.243A1.76,1.76,0,0,1,13.243,15ZM1.172,5.508v7.735a.587.587,0,0,0,.586.586H13.243a.587.587,0,0,0,.586-.586V5.508Zm.586-3.164a.587.587,0,0,0-.586.586V4.336H13.828V2.93a.587.587,0,0,0-.586-.586h-.7V3.515H11.367V2.344H3.632V3.515H2.461V2.344Z" fill="#2334d0"/>
  <path id="Rectangle" d="M0,0H1.172V1.172H0Z" transform="translate(2.227 6.738)" fill="#2334d0"/>
  <path id="Rectangle-2" data-name="Rectangle" d="M0,0H1.172V1.172H0Z" transform="translate(4.57 6.738)" fill="#2334d0"/>
  <path id="Rectangle-3" data-name="Rectangle" d="M0,0H1.172V1.172H0Z" transform="translate(6.914 6.738)" fill="#2334d0"/>
  <path id="Rectangle-4" data-name="Rectangle" d="M0,0H1.172V1.172H0Z" transform="translate(9.258 6.738)" fill="#2334d0"/>
  <path id="Rectangle-5" data-name="Rectangle" d="M0,0H1.172V1.172H0Z" transform="translate(11.602 6.738)" fill="#2334d0"/>
  <path id="Rectangle-6" data-name="Rectangle" d="M0,0H1.172V1.172H0Z" transform="translate(2.227 9.082)" fill="#2334d0"/>
  <path id="Rectangle-7" data-name="Rectangle" d="M0,0H1.172V1.172H0Z" transform="translate(4.57 9.082)" fill="#2334d0"/>
  <path id="Rectangle-8" data-name="Rectangle" d="M0,0H1.172V1.172H0Z" transform="translate(6.914 9.082)" fill="#2334d0"/>
  <path id="Rectangle-9" data-name="Rectangle" d="M0,0H1.172V1.172H0Z" transform="translate(9.258 9.082)" fill="#2334d0"/>
  <path id="Rectangle-10" data-name="Rectangle" d="M0,0H1.172V1.172H0Z" transform="translate(2.227 11.426)" fill="#2334d0"/>
  <path id="Rectangle-11" data-name="Rectangle" d="M0,0H1.172V1.172H0Z" transform="translate(4.57 11.426)" fill="#2334d0"/>
  <path id="Rectangle-12" data-name="Rectangle" d="M0,0H1.172V1.172H0Z" transform="translate(6.914 11.426)" fill="#2334d0"/>
  <path id="Rectangle-13" data-name="Rectangle" d="M0,0H1.172V1.172H0Z" transform="translate(9.258 11.426)" fill="#2334d0"/>
  <path id="Rectangle-14" data-name="Rectangle" d="M0,0H1.172V1.172H0Z" transform="translate(11.602 9.082)" fill="#2334d0"/>
</svg>
