<svg id="Illus_Cost" data-name="Illus/Cost" xmlns="http://www.w3.org/2000/svg" width="80" height="80" viewBox="0 0 80 80">
  <g id="cost">
    <path id="Combined_Shape" data-name="Combined Shape" d="M38.989,79.611l-8.571-8a1.273,1.273,0,0,1-.311-1.453,1.437,1.437,0,0,1,1.32-.823h2.858v-12h2.858V70.667A1.383,1.383,0,0,1,35.715,72h-.838L40,76.782,45.124,72h-.838a1.383,1.383,0,0,1-1.429-1.334V57.335h2.858v12h2.858a1.431,1.431,0,0,1,1.318.823,1.269,1.269,0,0,1-.308,1.453l-8.571,8a1.507,1.507,0,0,1-2.022,0Zm27.144-8-8.571-8a1.266,1.266,0,0,1-.311-1.453,1.434,1.434,0,0,1,1.32-.823h2.858V46.668h2.856v16A1.383,1.383,0,0,1,62.856,64H62.02l5.123,4.781L72.265,64h-.836A1.383,1.383,0,0,1,70,62.667v-16h2.856V61.334h2.858a1.434,1.434,0,0,1,1.32.823,1.273,1.273,0,0,1-.311,1.453l-8.571,8a1.5,1.5,0,0,1-2.019,0ZM11.848,62.276l-8.573-8a1.269,1.269,0,0,1-.308-1.453A1.434,1.434,0,0,1,4.287,52H7.142V37.333H10v16a1.383,1.383,0,0,1-1.429,1.334H7.735l5.123,4.781,5.123-4.781h-.838a1.383,1.383,0,0,1-1.427-1.334v-16h2.856V52h2.858a1.434,1.434,0,0,1,1.32.823,1.273,1.273,0,0,1-.311,1.453l-8.571,8a1.5,1.5,0,0,1-2.019,0Zm22.438-7.608V49.333h2.858v5.334ZM42.857,52V46.668h2.858V52Zm-8.571-5.332V44h2.858v2.667ZM61.429,44V38.666h2.856V44ZM42.857,44V41.334h2.858V44ZM70,41.334V38.666h2.856v2.667Zm-42.857-16c0-6.617,5.767-12,12.857-12s12.849,5.391,12.857,12-5.77,12-12.857,12S27.144,31.952,27.144,25.334Zm2.858,0c0,5.146,4.484,9.333,10,9.333s9.993-4.193,10-9.333S45.515,16,40,16,30,20.188,30,25.334ZM61.429,36V33.334h2.856V36ZM15.715,34.668V29.333h2.856v5.334Zm-8.573,0V32H10v2.667ZM70,33.334V30.667h2.856v2.667Zm-31.428,0V31.755A4.027,4.027,0,0,1,35.715,28h2.858A1.431,1.431,0,1,0,40,26.666a4.2,4.2,0,0,1-4.221-3.314,3.968,3.968,0,0,1,2.795-4.441V17.333h2.856v1.579a4.029,4.029,0,0,1,2.858,3.756H41.428A1.431,1.431,0,1,0,40,24a4.2,4.2,0,0,1,4.221,3.314,3.966,3.966,0,0,1-2.793,4.441v1.579Zm-31.43-4V26.666H10v2.667ZM54.285,16c0-6.617,5.767-12,12.857-12S80,9.384,80,16,74.233,28,67.143,28,54.294,22.608,54.285,16Zm2.858,0c0,5.146,4.486,9.333,10,9.333s10-4.187,10-9.333-4.486-9.333-10-9.333S57.149,10.859,57.143,16ZM45.714,26.666V24h2.858v2.665Zm-14.286,0V24h2.858v2.665ZM65.714,24V22.422a4.032,4.032,0,0,1-2.858-3.756h2.858a1.432,1.432,0,1,0,1.429-1.334,4.2,4.2,0,0,1-4.221-3.314,3.968,3.968,0,0,1,2.793-4.441V8h2.858V9.578a4.03,4.03,0,0,1,2.858,3.756H68.571a1.432,1.432,0,1,0-1.429,1.334,4.2,4.2,0,0,1,4.221,3.314,3.968,3.968,0,0,1-2.793,4.441V24ZM0,12C0,5.383,5.767,0,12.857,0S25.706,5.391,25.715,12,19.947,24,12.857,24,0,18.618,0,12Zm2.858,0c0,5.146,4.486,9.333,10,9.333s9.993-4.193,10-9.333-4.486-9.333-10-9.333S2.858,6.854,2.858,12Zm8.571,8V18.421a4.03,4.03,0,0,1-2.858-3.754h2.858a1.432,1.432,0,1,0,1.429-1.334,4.205,4.205,0,0,1-4.224-3.316A3.968,3.968,0,0,1,11.429,5.58V4h2.858V5.58a4.026,4.026,0,0,1,2.856,3.754H14.286a1.432,1.432,0,0,0-2.858,0,1.385,1.385,0,0,0,1.429,1.334,4.2,4.2,0,0,1,4.221,3.314,3.967,3.967,0,0,1-2.793,4.441V20Zm61.427-2.667V14.668h2.858v2.665Zm-14.284,0V14.668h2.858v2.665Zm-40-4V10.667h2.858v2.667Zm-14.284,0V10.667H7.142v2.667Z" fill="#2334d0"/>
  </g>
</svg>
