<svg id="Icons_Card_Visa" data-name="Icons/Card/Visa" xmlns="http://www.w3.org/2000/svg" width="10.5" height="6" viewBox="0 0 10.5 6">
  <path id="Path" d="M.22,1.28A.75.75,0,0,1,1.28.22l4.5,4.5A.75.75,0,0,1,5.8,5.757l-4.523,4.5A.751.751,0,0,1,.22,10.3a.749.749,0,0,1,0-1.06L4.212,5.273Z" transform="translate(10.5) rotate(90)" fill="#2334d0"/>
  <path id="Path-2" data-name="Path" d="M.22,1.28A.75.75,0,0,1,1.28.22l4.5,4.5A.75.75,0,0,1,5.8,5.757l-4.523,4.5A.751.751,0,0,1,.22,10.3a.749.749,0,0,1,0-1.06L4.212,5.273Z" transform="translate(10.5 0) rotate(90)" fill="#2334d0"/>
</svg>
