<svg xmlns="http://www.w3.org/2000/svg" width="23.297" height="16.6" viewBox="0 0 23.297 16.6">
  <g id="Stockholm_icons_Code_Backspace" data-name="Stockholm icons / Code / Backspace" transform="translate(0.354 0.3)">
    <g id="Group_174" data-name="Group 174">
      <path id="Path" d="M20.642,16H8.063a1,1,0,0,1-.6-.2l-.1-.085L.29,8.7a1,1,0,0,1-.077-1.32L.3,7.29l7.063-7A1,1,0,0,1,7.933.009L8.063,0H20.642a2.007,2.007,0,0,1,2,1.85L22.643,2V14a2.007,2.007,0,0,1-1.851,1.994ZM8.269,1.5,1.711,8,8.27,14.5H20.642a.5.5,0,0,0,.492-.41L21.143,14V2a.5.5,0,0,0-.41-.491l-.09-.008H8.269Z" transform="translate(0)" fill="#a8bcda" stroke="#a8bcda" stroke-miterlimit="10" stroke-width="0.6"/>
      <path id="Path-2" data-name="Path" d="M1.707,3.121.293,1.707A1,1,0,0,1,1.707.293L3.121,1.707,4.536.293A1,1,0,0,1,5.95,1.707L4.536,3.121,5.95,4.535A1,1,0,1,1,4.536,5.95L3.121,4.535,1.707,5.95A1,1,0,0,1,.293,4.535Z" transform="translate(10.521 4.879)" fill="#a8bcda"/>
    </g>
  </g>
</svg>
