<svg id="Illus_ExchangeB" data-name="Illus/ExchangeB" xmlns="http://www.w3.org/2000/svg" width="130" height="130" viewBox="0 0 130 130">
  <g id="exchange" transform="translate(0 7)">
    <path id="Combined_Shape" data-name="Combined Shape" d="M19,116.6a1.939,1.939,0,0,1-1.932-1.941V99.125A1.939,1.939,0,0,1,19,97.183h9.662v-8.9L16.026,75.589,2.172,61.67a7.4,7.4,0,0,1,8.771-11.741,25.292,25.292,0,0,1,6.342-32.972A25.015,25.015,0,0,1,50.61,19.538,25.3,25.3,0,0,1,51.846,53.1V66.121l1.932,19.22V97.183h1.932a1.939,1.939,0,0,1,1.932,1.942v15.53a1.939,1.939,0,0,1-1.932,1.941Zm1.932-3.883h32.85V101.066H20.929ZM17.064,46.707V68.722a5.848,5.848,0,0,0,1.695,4.122l13.2,13.26a1.958,1.958,0,0,1,.566,1.372v9.706H49.914V85.535L47.982,66.316V56.831a24.762,24.762,0,0,1-5.8,3.407V60.3a9.662,9.662,0,1,1-19.324,0V46.707a2.9,2.9,0,1,0-5.8,0ZM4.9,53.9a3.575,3.575,0,0,0,0,5.021l8.3,8.334V57.218L9.9,53.9a3.526,3.526,0,0,0-5,0ZM28.43,64.428a5.776,5.776,0,0,0,5.707,1.457,5.814,5.814,0,0,0,4.032-4.311,24.323,24.323,0,0,1-11.291,0A5.923,5.923,0,0,0,28.43,64.428ZM22.552,40.422a6.776,6.776,0,0,1,4.174,6.286V57.529A21.182,21.182,0,0,0,48.721,50.9,21.364,21.364,0,0,0,32.585,15.646h-.062A21.349,21.349,0,0,0,13.265,46.034a6.726,6.726,0,0,1,9.287-5.612ZM97.2,104.807a25.015,25.015,0,0,1-18.112-7.748A25.3,25.3,0,0,1,77.851,63.5V50.476L75.919,31.256V19.414H73.986a1.939,1.939,0,0,1-1.932-1.941V1.941A1.939,1.939,0,0,1,73.986,0H110.7a1.939,1.939,0,0,1,1.932,1.941V17.473a1.939,1.939,0,0,1-1.932,1.941h-9.661v8.9l12.632,12.691,13.855,13.92a7.4,7.4,0,0,1-8.771,11.741,25.291,25.291,0,0,1-6.342,32.971A24.947,24.947,0,0,1,97.2,104.807ZM80.978,65.7a21.365,21.365,0,0,0,16.138,35.256h.059a21.349,21.349,0,0,0,19.257-30.389,6.745,6.745,0,0,1-13.46-.674V59.069A21.177,21.177,0,0,0,80.978,65.7Zm25.859-9.4V69.89a2.9,2.9,0,1,0,5.8,0V47.875a5.839,5.839,0,0,0-1.695-4.122l-13.2-13.26a1.96,1.96,0,0,1-.566-1.372V19.414H79.783V31.062l1.932,19.22v9.483a24.765,24.765,0,0,1,5.8-3.407V56.3a9.662,9.662,0,1,1,19.324,0Zm9.661,3.079,3.3,3.314a3.526,3.526,0,0,0,5,0,3.57,3.57,0,0,0,0-5.02l-8.3-8.335Zm-13.685-4.351a5.9,5.9,0,0,0-1.546-2.86,5.773,5.773,0,0,0-5.71-1.457,5.813,5.813,0,0,0-4.031,4.315,25.205,25.205,0,0,1,11.287,0Zm-26.895-39.5h32.85V3.883H75.919ZM95.568,93.75,87.775,85.89l2.755-2.779L95,87.617V78.605h3.9v9.012l4.468-4.506,2.755,2.779L98.323,93.75a1.937,1.937,0,0,1-2.755,0Zm.067-17.766v-3.93h3.93v3.93Zm0-7.861v-3.93h3.93v3.93ZM30.132,52.4v-3.93h3.93V52.4Zm0-7.861v-3.93h3.93v3.93Zm.671-7.861V27.67l-4.467,4.506L23.582,29.4l7.793-7.861a1.936,1.936,0,0,1,2.755,0L41.923,29.4l-2.755,2.778L34.7,27.67v9.013Z" transform="translate(0.019)" fill="#2334d0"/>
  </g>
</svg>
