<svg id="Illus_Exchange_2" data-name="Illus/Exchange 2" xmlns="http://www.w3.org/2000/svg" width="80" height="80" viewBox="0 0 80 80">
  <g id="exchange-2" transform="translate(0.157 0.154)">
    <path id="Combined_Shape" data-name="Combined Shape" d="M57,75.776a39.4,39.4,0,0,1-17.044,3.9h-.118a40.083,40.083,0,0,1-17.608-4.116,5.3,5.3,0,0,1-8.948-3.85,5.223,5.223,0,0,1,.358-1.872A39.765,39.765,0,0,1,3.913,22.684,13.271,13.271,0,1,1,22.681,3.916,39.4,39.4,0,0,1,39.725.012h.118A40.113,40.113,0,0,1,57.451,4.128a5.286,5.286,0,0,1,8.59,5.724,39.762,39.762,0,0,1,9.732,47.156A13.271,13.271,0,1,1,57,75.776ZM55.777,66.4A10.622,10.622,0,1,0,66.4,55.78,10.633,10.633,0,0,0,55.777,66.4ZM23.909,71.714a5.22,5.22,0,0,1-.266,1.584,36.864,36.864,0,0,0,16.1,3.726h.214a36.83,36.83,0,0,0,15.336-3.37A13.265,13.265,0,0,1,57,57.008a13.265,13.265,0,0,1,16.646-1.716,37.133,37.133,0,0,0-9.16-43.27,5.264,5.264,0,0,1-8.448-5.628,37.306,37.306,0,0,0-16.2-3.726A36.832,36.832,0,0,0,24.4,6.038,13.263,13.263,0,0,1,6.035,24.4a37.133,37.133,0,0,0,9.16,43.27,5.281,5.281,0,0,1,8.714,4.044Zm-7.966,0A2.655,2.655,0,1,0,18.6,69.058,2.658,2.658,0,0,0,15.943,71.714ZM2.665,13.29A10.622,10.622,0,1,0,13.287,2.668,10.648,10.648,0,0,0,2.665,13.29ZM58.433,7.978a2.655,2.655,0,1,0,2.654-2.654A2.658,2.658,0,0,0,58.433,7.978Zm6.638,66.39V73.042a3.984,3.984,0,0,1-3.984-3.984h2.656a1.327,1.327,0,0,0,1.328,1.328h2.656a1.328,1.328,0,0,0,0-2.656H65.071a3.983,3.983,0,1,1,0-7.966V58.436h2.656v1.328a3.983,3.983,0,0,1,3.984,3.982H69.055a1.329,1.329,0,0,0-1.328-1.328H65.071a1.328,1.328,0,0,0,0,2.656h2.656a3.984,3.984,0,0,1,0,7.968v1.326ZM15.573,56.1a29.23,29.23,0,0,1-2.75-27.378l2.456,1.012A26.571,26.571,0,0,0,39.843,66.4a26.939,26.939,0,0,0,5-.47l.5,2.61a29.677,29.677,0,0,1-5.5.516A29.225,29.225,0,0,1,15.573,56.1Zm31.882,9.2c.826-.248,1.646-.538,2.436-.86L50.9,66.894a27.368,27.368,0,0,1-2.686.946ZM22.583,51.8A3.987,3.987,0,0,1,18.6,47.814V31.88A3.988,3.988,0,0,1,22.583,27.9H57.1a3.99,3.99,0,0,1,3.984,3.984V47.814A3.988,3.988,0,0,1,57.1,51.8ZM21.255,31.88V47.814a1.328,1.328,0,0,0,1.328,1.326H57.1a1.328,1.328,0,0,0,1.328-1.326V31.88A1.33,1.33,0,0,0,57.1,30.552H22.583A1.33,1.33,0,0,0,21.255,31.88Zm29.21,14.606V43.83h2.656V41.174h2.656v3.984a1.329,1.329,0,0,1-1.328,1.328ZM33.2,39.848a6.639,6.639,0,1,1,6.64,6.638A6.647,6.647,0,0,1,33.2,39.848Zm2.656,0a3.983,3.983,0,1,0,3.984-3.984A3.988,3.988,0,0,0,35.861,39.848ZM25.237,46.486a1.329,1.329,0,0,1-1.328-1.328V41.174h2.656V43.83h2.656v2.656Zm41.636-5.622-4.316-3.622,1.708-2.034,1.952,1.638A26.566,26.566,0,0,0,29.7,15.292l-1.016-2.454a29.225,29.225,0,0,1,40.162,23.6l1.48-1.766,2.034,1.708L68.745,40.7a1.34,1.34,0,0,1-.9.47q-.057,0-.114,0A1.333,1.333,0,0,1,66.873,40.864ZM53.121,38.518V35.862H50.465V33.208h3.984a1.327,1.327,0,0,1,1.328,1.326v3.984Zm-29.212,0V34.534a1.327,1.327,0,0,1,1.328-1.326h3.984v2.654H26.565v2.656ZM11.959,21.256V19.93a3.984,3.984,0,0,1-3.984-3.984h2.656a1.327,1.327,0,0,0,1.328,1.328h2.656a1.328,1.328,0,0,0,0-2.656H11.959a3.983,3.983,0,1,1,0-7.966V5.324h2.656V6.652A3.983,3.983,0,0,1,18.6,10.634H15.943a1.329,1.329,0,0,0-1.328-1.328H11.959a1.328,1.328,0,0,0,0,2.656h2.656a3.984,3.984,0,0,1,0,7.968v1.326Z" transform="translate(0)" fill="#2334d0"/>
  </g>
</svg>
