<svg id="Stockholm_icons_Navigation_Arrow_left_Copy" data-name="Stockholm icons / Navigation / Arrow left Copy" xmlns="http://www.w3.org/2000/svg" width="24" height="24" viewBox="0 0 24 24">
  <g id="filter" transform="translate(3 3)">
    <path id="Shape" d="M7.2,18a.9.9,0,0,1-.9-.9V10.184L.162,1.416A.9.9,0,0,1,.9,0H17.1a.9.9,0,0,1,.737,1.416L11.7,10.184v4.667a.9.9,0,0,1-.423.763l-3.6,2.25A.9.9,0,0,1,7.2,18ZM2.628,1.8,7.937,9.384A.9.9,0,0,1,8.1,9.9v5.576l1.8-1.125V9.9a.9.9,0,0,1,.163-.517L15.372,1.8Z" transform="translate(0 0)" fill="#fff"/>
  </g>
</svg>
