<svg id="Group" xmlns="http://www.w3.org/2000/svg" width="121" height="121" viewBox="0 0 121 121">
  <circle id="Oval" cx="60.5" cy="60.5" r="60.5" fill="#2334d0"/>
  <g id="Icons_Navigation_Check" data-name="Icons/ Navigation / Check" transform="translate(20.167 20.167)">
    <g id="visa" transform="translate(10.084 16.806)">
      <path id="Shape" d="M38.069,48.657H24.952a2.229,2.229,0,0,1-2.16-1.673L13.243,10.14A60.862,60.862,0,0,0,1.524,4.35,2.233,2.233,0,0,1,2.232,0H20.294A8.907,8.907,0,0,1,28.97,6.818l3.808,15.66L40.755,1.44A2.247,2.247,0,0,1,42.842,0H54.906a2.232,2.232,0,0,1,2.087,3.028L46.4,30.819a2.244,2.244,0,0,1-2.087,1.44,2.205,2.205,0,0,1-.793-.148,2.234,2.234,0,0,1-1.292-2.88L51.666,4.465H44.382l-9.973,26.3c-.024.064-.049.127-.079.191a2.3,2.3,0,0,1-.281.445,2.19,2.19,0,0,1-1,.708,2.084,2.084,0,0,1-.366.094,2.234,2.234,0,0,1-1.6-.342,2.229,2.229,0,0,1-.9-1.219l-.009-.036-.009-.033c-1.583-5.954-5.364-11.449-11.238-16.332L26.68,44.192h9.849l1.6-4.2a2.229,2.229,0,0,1,2.88-1.292,2.232,2.232,0,0,1,1.292,2.88L40.153,47.22A2.243,2.243,0,0,1,38.069,48.657ZM12.438,4.465c1.427.794,2.813,1.632,4.12,2.493a51.984,51.984,0,0,1,9.855,8.249L24.632,7.874a4.455,4.455,0,0,0-4.338-3.409Z" transform="translate(0 0)" fill="#fff"/>
    </g>
  </g>
</svg>
