<svg id="Illus_Growth" data-name="Illus/Growth" xmlns="http://www.w3.org/2000/svg" width="80" height="80" viewBox="0 0 80 80">
  <g id="growth">
    <path id="Combined_Shape" data-name="Combined Shape" d="M60,80a2.669,2.669,0,0,1-2.666-2.666V74.666a2.656,2.656,0,0,1,1.37-2.314A2.387,2.387,0,0,1,58.668,72V69.334a2.591,2.591,0,0,1,.036-.352,2.661,2.661,0,0,1-1.37-2.316V64a2.656,2.656,0,0,1,1.37-2.314,2.388,2.388,0,0,1-.036-.352V58.666a2.62,2.62,0,0,1,.37-1.332A2.638,2.638,0,0,1,58.668,56V53.334a2.592,2.592,0,0,1,.036-.352,2.661,2.661,0,0,1-1.37-2.316V48a2.656,2.656,0,0,1,1.37-2.314,2.388,2.388,0,0,1-.036-.352V42.666A2.669,2.669,0,0,1,61.334,40h16A2.669,2.669,0,0,1,80,42.666v2.668a2.652,2.652,0,0,1-1.368,2.314,2.693,2.693,0,0,1,.036.352v2.666a2.592,2.592,0,0,1-.036.352A2.664,2.664,0,0,1,80,53.334V56a2.638,2.638,0,0,1-.37,1.334A2.626,2.626,0,0,1,80,58.666v2.668a2.652,2.652,0,0,1-1.368,2.314,2.693,2.693,0,0,1,.036.352v2.666a2.592,2.592,0,0,1-.036.352A2.664,2.664,0,0,1,80,69.334V72a2.652,2.652,0,0,1-1.368,2.314,2.694,2.694,0,0,1,.036.352v2.668A2.671,2.671,0,0,1,76,80Zm0-2.666H76V74.666H60ZM61.334,72h16V69.334h-16ZM60,66.666H76V64H60Zm1.334-5.332h16V58.666h-16Zm0-5.334h16V53.334h-16ZM60,50.666H76V48H60Zm1.334-5.332h16V42.666h-16ZM32,80a2.669,2.669,0,0,1-2.666-2.668V74.666a2.658,2.658,0,0,1,1.37-2.314A2.388,2.388,0,0,1,30.668,72V69.332a2.592,2.592,0,0,1,.036-.352,2.656,2.656,0,0,1-1.37-2.314V64a2.638,2.638,0,0,1,.37-1.334,2.638,2.638,0,0,1-.37-1.334V58.666a2.638,2.638,0,0,1,.37-1.334A2.62,2.62,0,0,1,29.334,56V53.332A2.669,2.669,0,0,1,32,50.666H48a2.671,2.671,0,0,1,2.668,2.666V56a2.651,2.651,0,0,1-.372,1.332,2.681,2.681,0,0,1,.372,1.334v2.666a2.669,2.669,0,0,1-.372,1.334A2.681,2.681,0,0,1,50.668,64v2.666a2.559,2.559,0,0,1-.036.352A2.658,2.658,0,0,1,52,69.332V72a2.652,2.652,0,0,1-1.368,2.314,2.728,2.728,0,0,1,.036.352v2.666A2.671,2.671,0,0,1,48,80Zm0-2.668H48V74.666H32ZM33.334,72h16V69.332h-16ZM32,66.666H48V64H32Zm0-5.334H48V58.666H32ZM32,56H48V53.332H32ZM2.666,80A2.669,2.669,0,0,1,0,77.334V74.668a2.661,2.661,0,0,1,1.37-2.316A2.729,2.729,0,0,1,1.334,72V69.334a2.559,2.559,0,0,1,.036-.352A2.66,2.66,0,0,1,0,66.668V64a2.669,2.669,0,0,1,2.666-2.666h16A2.669,2.669,0,0,1,21.334,64v2.668a2.591,2.591,0,0,1-.036.352,2.65,2.65,0,0,1,1.368,2.314V72A2.66,2.66,0,0,1,21.3,74.316a2.693,2.693,0,0,1,.036.352v2.666A2.669,2.669,0,0,1,18.666,80Zm0-2.666h16V74.668h-16ZM4,72H20V69.334H4ZM2.666,66.668h16V64h-16Zm12-8v-8h2.668v8ZM6.666,56V53.334H9.334V56Zm0-5.334V48H9.334v2.666Zm8-2.666V37.334A1.335,1.335,0,0,1,16,36h.782L12,31.218,7.218,36H8a1.335,1.335,0,0,1,1.334,1.334v8H6.666V38.666H4a1.332,1.332,0,0,1-.942-2.276l8-8a1.333,1.333,0,0,1,1.884,0l8,8A1.332,1.332,0,0,1,20,38.666H17.334V48Zm28-1.334V41.334h2.668v5.332Zm-8-2.666V38.666h2.668V44Zm8-5.334V36h2.668v2.666Zm-8-2.666V33.334h2.668V36Zm8-2.666V20A1.335,1.335,0,0,1,44,18.666h.782L40,13.886l-4.782,4.78H36A1.335,1.335,0,0,1,37.334,20V30.666H34.666V21.334H32a1.333,1.333,0,0,1-.942-2.276l8-8a1.333,1.333,0,0,1,1.884,0l8,8A1.333,1.333,0,0,1,48,21.334H45.334v12ZM56,12A12,12,0,1,1,68,24,12.015,12.015,0,0,1,56,12Zm2.666,0A9.334,9.334,0,1,0,68,2.666,9.346,9.346,0,0,0,58.666,12Zm8,8V18.422A4,4,0,0,1,64,14.666h2.666A1.334,1.334,0,1,0,68,13.334a3.992,3.992,0,0,1-1.334-7.756V4h2.668V5.578A4,4,0,0,1,72,9.334H69.334A1.334,1.334,0,1,0,68,10.666a3.992,3.992,0,0,1,1.334,7.756V20Z" fill="#2334d0"/>
  </g>
</svg>
