<svg id="Icons_Menu_Menu_Copy_2" data-name="Icons/Menu/Menu Copy 2" xmlns="http://www.w3.org/2000/svg" width="22.676" height="25.27" viewBox="0 0 22.676 25.27">
  <path id="Shape" d="M11.338,25.27a2.131,2.131,0,0,1-1.055-.28L1.071,19.725A2.131,2.131,0,0,1,0,17.88V7.39A2.132,2.132,0,0,1,1.071,5.543L10.283.28a2.124,2.124,0,0,1,2.109,0L21.6,5.543A2.132,2.132,0,0,1,22.676,7.39V17.88A2.131,2.131,0,0,1,21.6,19.725L12.392,24.99A2.125,2.125,0,0,1,11.338,25.27Zm0-16.177a3.541,3.541,0,1,0,3.542,3.542A3.545,3.545,0,0,0,11.337,9.093Z" fill="#2334d0"/>
</svg>
