<svg id="Icons_Menu_Menu_Copy" data-name="Icons/Menu/Menu Copy" xmlns="http://www.w3.org/2000/svg" width="34" height="34" viewBox="0 0 34 34">
  <g id="Group_284" data-name="Group 284" transform="translate(2.833 5.667)">
    <path id="Combined_Shape" data-name="Combined Shape" d="M25.5,22.667H2.833A2.836,2.836,0,0,1,0,19.834v-17A2.836,2.836,0,0,1,2.833,0H25.5a2.836,2.836,0,0,1,2.833,2.833v17A2.836,2.836,0,0,1,25.5,22.667ZM4.958,9.917a2.127,2.127,0,0,0-2.125,2.124v.709h6.5a1.421,1.421,0,0,1,1,.416l1.417,1.417a3.444,3.444,0,0,0,2.419,1,3.4,3.4,0,0,0,2.419-1L18,13.166a1.423,1.423,0,0,1,1-.416h6.5v-.709a2.127,2.127,0,0,0-2.125-2.124Zm0-7.084A2.128,2.128,0,0,0,2.833,4.958v.708H25.5V4.958a2.128,2.128,0,0,0-2.125-2.125Z" fill="#2334d0"/>
  </g>
</svg>
