<svg id="Icons_Menu_Menu_Copy_4" data-name="Icons/Menu/Menu Copy 4" xmlns="http://www.w3.org/2000/svg" width="28.333" height="24.083" viewBox="0 0 28.333 24.083">
  <path id="Shape" d="M25.5,24.083H2.833A2.836,2.836,0,0,1,0,21.25V2.833A2.836,2.836,0,0,1,2.833,0H25.5a2.836,2.836,0,0,1,2.833,2.833V21.25A2.836,2.836,0,0,1,25.5,24.083ZM19.834,9.917a1.415,1.415,0,0,0-1.408,1.251l-.01.166V17a1.417,1.417,0,0,0,2.824.166L21.25,17V11.333A1.418,1.418,0,0,0,19.834,9.917ZM14.167,5.666a1.418,1.418,0,0,0-1.408,1.252l-.009.166V17a1.417,1.417,0,0,0,2.824.166L15.583,17V7.084A1.419,1.419,0,0,0,14.167,5.666ZM8.5,14.167a1.416,1.416,0,0,0-1.408,1.252l-.009.164V17a1.416,1.416,0,0,0,2.823.166L9.917,17V15.583A1.418,1.418,0,0,0,8.5,14.167Z" fill="#2334d0"/>
</svg>
