<svg id="Icons_Menu_Menu_Copy_3" data-name="Icons/Menu/Menu Copy 3" xmlns="http://www.w3.org/2000/svg" width="34" height="34" viewBox="0 0 34 34">
  <g id="Group_289" data-name="Group 289" transform="translate(5.667 5.667)">
    <path id="Path" d="M11.333,1.417A1.417,1.417,0,0,0,9.917,0H4.25A4.25,4.25,0,0,0,0,4.25V18.417a4.25,4.25,0,0,0,4.25,4.25H9.917a1.417,1.417,0,0,0,1.417-1.417Z" fill="#2334d0"/>
    <path id="Shape" d="M7.084,22.667H2.833A2.836,2.836,0,0,1,0,19.834V15.583a1.256,1.256,0,0,1,1.417-1.417,1.256,1.256,0,0,1,1.417,1.417v4.251H7.084C8.024,20,8.5,20.472,8.5,21.25s-.477,1.255-1.417,1.417Zm12.75,0H15.583a1.256,1.256,0,0,1-1.417-1.417,1.256,1.256,0,0,1,1.417-1.417h4.251V15.583c.16-.94.636-1.417,1.417-1.417s1.255.477,1.417,1.417v4.251A2.836,2.836,0,0,1,19.834,22.667ZM21.25,8.5a1.256,1.256,0,0,1-1.417-1.417V2.833H15.583c-.94-.161-1.417-.638-1.417-1.417S14.643.161,15.583,0h4.251a2.836,2.836,0,0,1,2.833,2.833V7.084A1.256,1.256,0,0,1,21.25,8.5ZM1.417,8.5C.638,8.5.161,8.024,0,7.084V2.833A2.836,2.836,0,0,1,2.833,0H7.084A1.256,1.256,0,0,1,8.5,1.417,1.256,1.256,0,0,1,7.084,2.833H2.833V7.084C2.672,8.024,2.2,8.5,1.417,8.5Z" transform="translate(0 0)" fill="#2334d0"/>
  </g>
</svg>
