<svg xmlns="http://www.w3.org/2000/svg" xmlns:xlink="http://www.w3.org/1999/xlink" width="325" height="39" viewBox="0 0 325 39">
  <defs>
    <filter id="Union_1" x="0" y="0" width="325" height="39" filterUnits="userSpaceOnUse">
      <feOffset dy="3" input="SourceAlpha"/>
      <feGaussianBlur stdDeviation="3" result="blur"/>
      <feFlood flood-opacity="0.161"/>
      <feComposite operator="in" in2="blur"/>
      <feComposite in="SourceGraphic"/>
    </filter>
  </defs>
  <g transform="matrix(1, 0, 0, 1, 0, 0)" filter="url(#Union_1)">
    <g id="Union_1-2" data-name="Union 1" transform="translate(-2076 -2235)" fill="#55556c">
      <path d="M 2382.000244140625 2261.499755859375 C 2379.7958984375 2261.499755859375 2377.647705078125 2260.727783203125 2375.95166015625 2259.325927734375 C 2374.277587890625 2257.9423828125 2373.118896484375 2256.015380859375 2372.689453125 2253.900390625 L 2372.608154296875 2253.499755859375 L 2372.199462890625 2253.499755859375 L 2284.800048828125 2253.499755859375 L 2284.391357421875 2253.499755859375 L 2284.31005859375 2253.900390625 C 2283.880615234375 2256.015380859375 2282.72216796875 2257.9423828125 2281.048095703125 2259.325927734375 C 2279.352294921875 2260.727783203125 2277.204345703125 2261.499755859375 2275.000244140625 2261.499755859375 C 2272.795654296875 2261.499755859375 2270.647705078125 2260.727783203125 2268.951904296875 2259.325927734375 C 2267.27783203125 2257.9423828125 2266.11962890625 2256.015625 2265.6904296875 2253.900390625 L 2265.609130859375 2253.499755859375 L 2265.200439453125 2253.499755859375 L 2197.542236328125 2253.499755859375 L 2197.175048828125 2253.499755859375 L 2197.065185546875 2253.85009765625 C 2196.47265625 2255.7373046875 2195.268310546875 2257.431396484375 2193.673828125 2258.620361328125 C 2192.025146484375 2259.849853515625 2190.063232421875 2260.499755859375 2188 2260.499755859375 C 2185.936767578125 2260.499755859375 2183.974853515625 2259.849853515625 2182.326171875 2258.620361328125 C 2180.731689453125 2257.431396484375 2179.52734375 2255.7373046875 2178.934814453125 2253.85009765625 L 2178.824951171875 2253.499755859375 L 2178.457763671875 2253.499755859375 L 2104.800048828125 2253.499755859375 L 2104.391357421875 2253.499755859375 L 2104.31005859375 2253.900390625 C 2103.880615234375 2256.015380859375 2102.72216796875 2257.9423828125 2101.048095703125 2259.325927734375 C 2099.352294921875 2260.727783203125 2097.204345703125 2261.499755859375 2095.000244140625 2261.499755859375 C 2089.761962890625 2261.499755859375 2085.500244140625 2257.238037109375 2085.500244140625 2251.999755859375 C 2085.500244140625 2246.761474609375 2089.761962890625 2242.5 2095.000244140625 2242.5 C 2097.06298828125 2242.5 2099.024658203125 2243.14990234375 2100.67333984375 2244.379638671875 C 2102.267822265625 2245.56884765625 2103.472412109375 2247.262939453125 2104.065185546875 2249.150146484375 L 2104.17529296875 2249.500244140625 L 2104.542236328125 2249.500244140625 L 2178.199951171875 2249.500244140625 L 2178.608642578125 2249.500244140625 L 2178.68994140625 2249.099609375 C 2179.119384765625 2246.984375 2180.277587890625 2245.057373046875 2181.95166015625 2243.673828125 C 2183.6474609375 2242.27197265625 2185.79541015625 2241.5 2188 2241.5 C 2190.204345703125 2241.5 2192.352294921875 2242.27197265625 2194.048095703125 2243.673828125 C 2195.72216796875 2245.057373046875 2196.88037109375 2246.984375 2197.309814453125 2249.099609375 L 2197.39111328125 2249.500244140625 L 2197.7998046875 2249.500244140625 L 2265.4580078125 2249.500244140625 L 2265.824951171875 2249.500244140625 L 2265.93505859375 2249.150146484375 C 2266.52783203125 2247.262939453125 2267.732421875 2245.56884765625 2269.326904296875 2244.379638671875 C 2270.9755859375 2243.14990234375 2272.937255859375 2242.5 2275.000244140625 2242.5 C 2277.06298828125 2242.5 2279.024658203125 2243.14990234375 2280.67333984375 2244.379638671875 C 2282.267822265625 2245.56884765625 2283.472412109375 2247.262939453125 2284.065185546875 2249.150146484375 L 2284.17529296875 2249.500244140625 L 2284.542236328125 2249.500244140625 L 2372.45751953125 2249.500244140625 L 2372.824462890625 2249.500244140625 L 2372.9345703125 2249.150146484375 C 2373.52734375 2247.262939453125 2374.73193359375 2245.56884765625 2376.32666015625 2244.379638671875 C 2377.975341796875 2243.14990234375 2379.937255859375 2242.5 2382.000244140625 2242.5 C 2384.373046875 2242.5 2386.64501953125 2243.379638671875 2388.3974609375 2244.976806640625 C 2390.138427734375 2246.563720703125 2391.223876953125 2248.72265625 2391.453857421875 2251.05615234375 L 2391.456298828125 2251.080810546875 L 2391.461181640625 2251.105224609375 C 2391.487060546875 2251.234619140625 2391.500244140625 2251.367431640625 2391.500244140625 2251.500244140625 C 2391.500244140625 2251.54296875 2391.498779296875 2251.588623046875 2391.495849609375 2251.635498046875 L 2391.494384765625 2251.658935546875 L 2391.4951171875 2251.68212890625 C 2391.49853515625 2251.794189453125 2391.500244140625 2251.89794921875 2391.500244140625 2251.999755859375 C 2391.500244140625 2257.238037109375 2387.238525390625 2261.499755859375 2382.000244140625 2261.499755859375 Z" stroke="none"/>
      <path d="M 2382.000244140625 2260.999755859375 C 2386.962890625 2260.999755859375 2391.000244140625 2256.96240234375 2391.000244140625 2251.999755859375 C 2391.000244140625 2251.903076171875 2390.99853515625 2251.804443359375 2390.995361328125 2251.69775390625 L 2390.993896484375 2251.651123046875 L 2390.996826171875 2251.6044921875 C 2390.9990234375 2251.56787109375 2391.000244140625 2251.53271484375 2391.000244140625 2251.500244140625 C 2391.000244140625 2251.400390625 2390.990478515625 2251.300537109375 2390.970947265625 2251.20361328125 L 2390.961181640625 2251.15478515625 L 2390.956298828125 2251.105224609375 C 2390.738525390625 2248.89501953125 2389.710205078125 2246.849853515625 2388.060546875 2245.346435546875 C 2386.400634765625 2243.833251953125 2384.248291015625 2243 2382.000244140625 2243 C 2380.0458984375 2243 2378.187255859375 2243.61572265625 2376.62548828125 2244.780517578125 C 2375.114501953125 2245.9072265625 2373.97314453125 2247.51220703125 2373.41162109375 2249.2998046875 L 2373.191650390625 2250.000244140625 L 2372.45751953125 2250.000244140625 L 2284.542236328125 2250.000244140625 L 2283.80810546875 2250.000244140625 L 2283.588134765625 2249.2998046875 C 2283.026611328125 2247.51220703125 2281.88525390625 2245.9072265625 2280.37451171875 2244.7802734375 C 2278.812744140625 2243.61572265625 2276.954345703125 2243 2275.000244140625 2243 C 2273.0458984375 2243 2271.1875 2243.61572265625 2269.625732421875 2244.7802734375 C 2268.114990234375 2245.9072265625 2266.9736328125 2247.51220703125 2266.412109375 2249.2998046875 L 2266.192138671875 2250.000244140625 L 2265.4580078125 2250.000244140625 L 2197.7998046875 2250.000244140625 L 2196.982421875 2250.000244140625 L 2196.81982421875 2249.19921875 C 2196.4130859375 2247.195556640625 2195.315673828125 2245.3701171875 2193.729736328125 2244.05908203125 C 2192.123291015625 2242.731201171875 2190.08837890625 2242 2188 2242 C 2185.91162109375 2242 2183.876708984375 2242.731201171875 2182.27001953125 2244.05908203125 C 2180.68408203125 2245.3701171875 2179.586669921875 2247.195556640625 2179.179931640625 2249.19921875 L 2179.017333984375 2250.000244140625 L 2178.199951171875 2250.000244140625 L 2104.542236328125 2250.000244140625 L 2103.80810546875 2250.000244140625 L 2103.588134765625 2249.2998046875 C 2103.026611328125 2247.51220703125 2101.88525390625 2245.9072265625 2100.37451171875 2244.7802734375 C 2098.812744140625 2243.61572265625 2096.954345703125 2243 2095.000244140625 2243 C 2090.03759765625 2243 2086.000244140625 2247.037353515625 2086.000244140625 2251.999755859375 C 2086.000244140625 2256.96240234375 2090.03759765625 2260.999755859375 2095.000244140625 2260.999755859375 C 2097.08837890625 2260.999755859375 2099.123046875 2260.2685546875 2100.729736328125 2258.940673828125 C 2102.31591796875 2257.629638671875 2103.413330078125 2255.80419921875 2103.820068359375 2253.80078125 L 2103.982666015625 2252.999755859375 L 2104.800048828125 2252.999755859375 L 2178.457763671875 2252.999755859375 L 2179.19189453125 2252.999755859375 L 2179.411865234375 2253.7001953125 C 2179.97314453125 2255.488037109375 2181.1142578125 2257.093017578125 2182.625 2258.2197265625 C 2184.186767578125 2259.38427734375 2186.045166015625 2259.999755859375 2188 2259.999755859375 C 2189.954833984375 2259.999755859375 2191.8134765625 2259.38427734375 2193.375 2258.2197265625 C 2194.8857421875 2257.093017578125 2196.02685546875 2255.488037109375 2196.588134765625 2253.7001953125 L 2196.80810546875 2252.999755859375 L 2197.542236328125 2252.999755859375 L 2265.200439453125 2252.999755859375 L 2266.017822265625 2252.999755859375 L 2266.180419921875 2253.80078125 C 2266.5869140625 2255.804443359375 2267.684326171875 2257.629638671875 2269.2705078125 2258.940673828125 C 2270.876953125 2260.2685546875 2272.911865234375 2260.999755859375 2275.000244140625 2260.999755859375 C 2277.08837890625 2260.999755859375 2279.123046875 2260.2685546875 2280.729736328125 2258.940673828125 C 2282.31591796875 2257.629638671875 2283.413330078125 2255.80419921875 2283.820068359375 2253.80078125 L 2283.982666015625 2252.999755859375 L 2284.800048828125 2252.999755859375 L 2372.199462890625 2252.999755859375 L 2373.016845703125 2252.999755859375 L 2373.179443359375 2253.80078125 C 2373.586181640625 2255.80419921875 2374.683837890625 2257.629638671875 2376.270263671875 2258.940673828125 C 2377.876708984375 2260.2685546875 2379.911865234375 2260.999755859375 2382.000244140625 2260.999755859375 M 2382.000244140625 2261.999755859375 C 2377.162109375 2261.999755859375 2373.126220703125 2258.564208984375 2372.199462890625 2253.999755859375 L 2284.800048828125 2253.999755859375 C 2283.87353515625 2258.564208984375 2279.837646484375 2261.999755859375 2275.000244140625 2261.999755859375 C 2270.161865234375 2261.999755859375 2266.126708984375 2258.564208984375 2265.200439453125 2253.999755859375 L 2197.542236328125 2253.999755859375 C 2196.268310546875 2258.05712890625 2192.478271484375 2260.999755859375 2188 2260.999755859375 C 2183.521728515625 2260.999755859375 2179.731689453125 2258.05712890625 2178.457763671875 2253.999755859375 L 2104.800048828125 2253.999755859375 C 2103.87353515625 2258.564208984375 2099.837646484375 2261.999755859375 2095.000244140625 2261.999755859375 C 2089.47705078125 2261.999755859375 2085.000244140625 2257.523193359375 2085.000244140625 2251.999755859375 C 2085.000244140625 2246.4775390625 2089.47705078125 2242 2095.000244140625 2242 C 2099.4775390625 2242 2103.267822265625 2244.943359375 2104.542236328125 2249.000244140625 L 2178.199951171875 2249.000244140625 C 2179.12646484375 2244.435546875 2183.16162109375 2241 2188 2241 C 2192.838134765625 2241 2196.873291015625 2244.435546875 2197.7998046875 2249.000244140625 L 2265.4580078125 2249.000244140625 C 2266.732421875 2244.943359375 2270.5224609375 2242 2275.000244140625 2242 C 2279.4775390625 2242 2283.267822265625 2244.943359375 2284.542236328125 2249.000244140625 L 2372.45751953125 2249.000244140625 C 2373.73193359375 2244.943359375 2377.5224609375 2242 2382.000244140625 2242 C 2387.187744140625 2242 2391.453125 2245.95068359375 2391.951416015625 2251.007080078125 C 2391.9833984375 2251.16650390625 2392.000244140625 2251.33154296875 2392.000244140625 2251.500244140625 C 2392.000244140625 2251.55615234375 2391.998291015625 2251.61181640625 2391.994873046875 2251.666748046875 C 2391.998291015625 2251.77734375 2392.000244140625 2251.88818359375 2392.000244140625 2251.999755859375 C 2392.000244140625 2257.523193359375 2387.522705078125 2261.999755859375 2382.000244140625 2261.999755859375 Z" stroke="none" fill="#707070"/>
    </g>
  </g>
</svg>
