<svg id="Illus_Wallet" data-name="Illus/Wallet" xmlns="http://www.w3.org/2000/svg" width="80" height="80" viewBox="0 0 80 80">
  <g id="wallet-2" transform="translate(0.001 0)">
    <path id="Combined_Shape" data-name="Combined Shape" d="M63.748,80H7.812A7.82,7.82,0,0,1,0,72.188V29.45c0-.044,0-.088.006-.13l0-.086c0-.058,0-.116,0-.174A6.57,6.57,0,0,1,6.562,22.5h3.83L16.11,1.158a1.56,1.56,0,0,1,1.914-1.1L40.606,6.1,46.252.458a1.562,1.562,0,0,1,2.21,0L70.5,22.5h1.686A7.82,7.82,0,0,1,80,30.31V72.186A7.82,7.82,0,0,1,72.186,80H63.82a.218.218,0,0,0-.036,0Zm7.812-7.812A7.742,7.742,0,0,1,70,76.874h2.19a4.693,4.693,0,0,0,4.686-4.688V64.5A7.437,7.437,0,0,1,72.5,65.91H71.56ZM10.624,59.28V76.874h53.2a4.706,4.706,0,0,0,4.616-4.686V65.91H39.686a9.687,9.687,0,0,1,0-19.374h4.736a1.562,1.562,0,0,1,0,3.124H39.686a6.563,6.563,0,0,0,0,13.126H72.5a4.38,4.38,0,0,0,4.374-4.376V48.564a6.782,6.782,0,0,1-3.7,1.1H57.138a1.562,1.562,0,0,1,0-3.124h11.3V40.31a4.7,4.7,0,0,0-4.688-4.688H6.562a6.555,6.555,0,0,1-3.438-.974v37.54A4.7,4.7,0,0,0,7.5,76.864V59.28a1.562,1.562,0,1,1,3.124,0ZM63.91,32.5a7.817,7.817,0,0,1,7.65,7.808v6.226h1.61a3.707,3.707,0,0,0,3.7-3.7V30.31a4.693,4.693,0,0,0-4.686-4.688h-1.4Zm-52.962,0H13.04L18.5,12.1a1.568,1.568,0,0,1,1.51-1.16,1.536,1.536,0,0,1,.4.054,3.288,3.288,0,0,0,.846.112,3.25,3.25,0,0,0,3.128-2.4,1.545,1.545,0,0,1,.728-.95,1.58,1.58,0,0,1,.782-.21,1.521,1.521,0,0,1,.4.054l10.1,2.706,1.65-1.65-19.33-5.18ZM3.124,29.06A3.442,3.442,0,0,0,6.562,32.5h1.15l1.842-6.876H6.562A3.442,3.442,0,0,0,3.124,29.06ZM51.86,11.134,60.426,19.7a1.567,1.567,0,0,1,0,2.21,3.25,3.25,0,0,0,0,4.588,1.567,1.567,0,0,1,0,2.21l-3.738,3.738h2.858L67.788,24.2,47.356,3.772l-5.178,5.18-23.5,23.494H21.54L42.852,11.134a1.562,1.562,0,0,1,2.21,0,3.245,3.245,0,0,0,4.588,0,1.562,1.562,0,0,1,2.21,0Zm-7,21.312h7.406l4.982-4.98a6.358,6.358,0,0,1,0-6.522l-6.632-6.632a6.4,6.4,0,0,1-6.524,0L25.96,32.446h4.334a7.454,7.454,0,0,1,14.568,0Zm-11.312,0h8.058a4.33,4.33,0,0,0-8.058,0ZM17.03,29.68l6.618-6.618,10.2-10.2L26.82,10.974a6.382,6.382,0,0,1-5.552,3.262h-.1ZM35.564,56.232a4.062,4.062,0,1,1,4.062,4.062A4.066,4.066,0,0,1,35.564,56.232Zm3.124,0a.938.938,0,1,0,.938-.938A.938.938,0,0,0,38.688,56.232ZM7.958,54.29a1.562,1.562,0,1,1,1.1.458A1.576,1.576,0,0,1,7.958,54.29Zm42-5.088a1.562,1.562,0,1,1,1.1.458A1.572,1.572,0,0,1,49.958,49.2Z" transform="translate(0)" fill="#2334d0"/>
  </g>
</svg>
