<svg id="Cell_Welcome" data-name="Cell/Welcome" xmlns="http://www.w3.org/2000/svg" xmlns:xlink="http://www.w3.org/1999/xlink" width="375" height="400" viewBox="0 0 375 400">
  <defs>
    <clipPath id="clip-path">
      <rect id="Rectangle" width="375" height="400" fill="none"/>
    </clipPath>
  </defs>
  <g id="Group_2" data-name="Group 2">
    <rect id="Rectangle-2" data-name="Rectangle" width="375" height="400" fill="none"/>
    <g id="Group_2-2" data-name="Group 2" clip-path="url(#clip-path)">
      <g id="Group" transform="translate(-221)">
        <path id="Path_" data-name="Path " d="M384.267,372.25A99.548,99.548,0,0,1,341.909,348.3c-21.736-16.928-23.9-38.295-47.925-46.215-12.663-4.176-26.861.831-41.522,7.021A174.566,174.566,0,0,1,123.28,323.274C32.94,298.19-19.279,206.923,6.646,119.432S126.829-18.66,217.169,6.425c70.907,19.689,118.321,80.145,122.905,147.547,2.471,11.79,6.439,22.024,16.017,27.188,13.757,7.4,25.815,5.353,39.546,3.734a101.92,101.92,0,0,1,43.42,2.461c52.724,14.635,83.2,67.9,68.063,118.955S436.986,386.89,384.267,372.25Z" fill="#e9ebfb"/>
        <path id="Path" d="M384.267,372.25A99.548,99.548,0,0,1,341.909,348.3c-21.736-16.928-23.9-38.295-47.925-46.215-12.663-4.176-26.861.831-41.522,7.021A174.566,174.566,0,0,1,123.28,323.274C32.94,298.19-19.279,206.923,6.646,119.432S126.829-18.66,217.169,6.425c70.907,19.689,118.321,80.145,122.905,147.547,2.471,11.79,6.439,22.024,16.017,27.188,13.757,7.4,25.815,5.353,39.546,3.734a101.92,101.92,0,0,1,43.42,2.461c52.724,14.635,83.2,67.9,68.063,118.955S436.986,386.89,384.267,372.25Z" transform="translate(0 24)" fill="#2334d0"/>
      </g>
    </g>
  </g>
</svg>
